<svg width="1077" height="159" viewBox="0 0 1077 159" fill="none" xmlns="http://www.w3.org/2000/svg">
<path opacity="0.2" d="M3 116C1.61929 116 0.5 117.119 0.5 118.5C0.5 119.881 1.61929 121 3 121V116ZM547 116L3 116V121L547 121V116Z" fill="#A8DCD9"/>
<line opacity="0.2" x1="1077" y1="118.5" x2="921" y2="118.5" stroke="#A8DCD9" stroke-width="5"/>
<g opacity="0.8">
<path d="M865.679 106.866V9.9612C865.679 5.54292 862.097 1.96121 857.679 1.96121H605.42C601.001 1.96121 597.42 5.54293 597.42 9.96121V112.838C597.42 114.727 596.751 116.555 595.533 117.998L574.109 143.379C569.718 148.58 573.416 156.539 580.222 156.539H889.778C896.584 156.539 900.282 148.58 895.891 143.379L874.977 118.603C873.457 116.802 871.221 115.763 868.864 115.763H620.825" stroke="#F49F0A" stroke-width="3" stroke-linecap="round"/>
<path d="M869.8 127.706L867.777 125.327C867.017 124.433 865.903 123.918 864.73 123.918H604.97C603.797 123.918 602.683 124.433 601.923 125.327L599.9 127.706C597.691 130.304 599.537 134.297 602.947 134.297H866.753C870.163 134.297 872.009 130.304 869.8 127.706Z" stroke="#F49F0A" stroke-width="3"/>
<path d="M701.811 148.754H767.889C771.007 148.754 772.732 145.139 770.77 142.715C770.067 141.846 769.008 141.341 767.889 141.341H701.811C700.692 141.341 699.633 141.846 698.93 142.715C696.968 145.139 698.693 148.754 701.811 148.754Z" stroke="#F49F0A" stroke-width="3"/>
<rect x="606.422" y="10.8578" width="250.255" height="96.3793" rx="8" fill="#A8DCD9" fill-opacity="0.3"/>
</g>
</svg>
