<svg width="38" height="35" viewBox="0 0 38 35" fill="none" xmlns="http://www.w3.org/2000/svg">
<path d="M17.8142 27.6547L17.8141 27.6547L17.8078 27.6673C17.272 28.7498 15.728 28.7498 15.1922 27.6673L15.1923 27.6672L15.1858 27.6547L8.26164 14.3024C5.0582 8.12492 9.54135 0.75 16.5 0.75C23.4586 0.75 27.9418 8.12493 24.7384 14.3024L17.8142 27.6547Z" stroke="#999999" stroke-width="1.5"/>
<path opacity="0.18" d="M12.5958 17.6476C9.1335 10.9709 13.979 3 21.5 3C29.021 3 33.8665 10.971 30.4042 17.6476L23.48 31C22.6687 32.6389 20.3313 32.6389 19.52 31L12.5958 17.6476Z" fill="#888888"/>
<mask id="path-3-inside-1" fill="white">
<path fill-rule="evenodd" clip-rule="evenodd" d="M16.5 5C19.7595 5.00006 21.7983 8.52681 20.1716 11.3515L19.9401 11.7534C19.076 12.5212 17.8543 13 16.5 13C15.1455 13 13.9237 12.5211 13.0595 11.7531L12.8282 11.3515C11.2015 8.52679 13.2403 5 16.4999 5C16.4999 5 16.5 5 16.5 5Z"/>
</mask>
<path d="M16.5 5L16.5 4H16.5V5ZM20.1716 11.3515L21.0382 11.8505L20.1716 11.3515ZM19.9401 11.7534L20.6043 12.5009L20.7257 12.3931L20.8067 12.2524L19.9401 11.7534ZM13.0595 11.7531L12.1929 12.2521L12.2739 12.3928L12.3952 12.5006L13.0595 11.7531ZM12.8282 11.3515L13.6948 10.8524L12.8282 11.3515ZM16.5 6C18.9902 6.00004 20.5478 8.69443 19.305 10.8524L21.0382 11.8505C23.0487 8.35919 20.5288 4.00007 16.5 4L16.5 6ZM19.305 10.8524L19.0736 11.2544L20.8067 12.2524L21.0382 11.8505L19.305 10.8524ZM19.2759 11.0059C18.604 11.6029 17.622 12 16.5 12V14C18.0865 14 19.5479 13.4396 20.6043 12.5009L19.2759 11.0059ZM16.5 12C15.3778 12 14.3957 11.6028 13.7238 11.0056L12.3952 12.5006C13.4517 13.4394 14.9133 14 16.5 14V12ZM13.9261 11.2541L13.6948 10.8524L11.9616 11.8505L12.1929 12.2521L13.9261 11.2541ZM13.6948 10.8524C12.452 8.69441 14.0096 6 16.4999 6V4C12.471 4 9.95105 8.35917 11.9616 11.8505L13.6948 10.8524ZM16.4999 6C16.4999 6 16.4999 6 16.4999 6C16.4999 6 16.4999 6 16.4999 6C16.4999 6 16.4999 6 16.4999 6C16.4999 6 16.4999 6 16.4999 6C16.4999 6 16.4999 6 16.4999 6C16.4999 6 16.4999 6 16.4999 6C16.4999 6 16.4999 6 16.4999 6C16.4999 6 16.4999 6 16.4999 6C16.4999 6 16.4999 6 16.4999 6C16.4999 6 16.4999 6 16.4999 6H16.4999H16.4999H16.4999H16.4999H16.4999H16.4999H16.4999H16.4999H16.4999H16.4999H16.4999C16.4999 6 16.4999 6 16.4999 6C16.4999 6 16.4999 6 16.4999 6C16.4999 6 16.4999 6 16.4999 6C16.4999 6 16.4999 6 16.4999 6C16.4999 6 16.4999 6 16.4999 6C16.4999 6 16.4999 6 16.4999 6C16.4999 6 16.4999 6 16.4999 6C16.4999 6 16.4999 6 16.4999 6C16.4999 6 16.4999 6 16.4999 6C16.4999 6 16.4999 6 16.4999 6C16.4999 6 16.4999 6 16.4999 6C16.4999 6 16.4999 6 16.4999 6C16.4999 6 16.4999 6 16.4999 6C16.4999 6 16.4999 6 16.4999 6C16.4999 6 16.4999 6 16.4999 6C16.4999 6 16.4999 6 16.4999 6C16.4999 6 16.4999 6 16.4999 6C16.4999 6 16.4999 6 16.4999 6C16.4999 6 16.4999 6 16.4999 6C16.4999 6 16.4999 6 16.4999 6C16.4999 6 16.4999 6 16.4999 6C16.4999 6 16.4999 6 16.4999 6C16.4999 6 16.4999 6 16.4999 6C16.4999 6 16.4999 6 16.4999 6C16.4999 6 16.4999 6 16.4999 6C16.4999 6 16.4999 6 16.4999 6C16.4999 6 16.4999 6 16.4999 6C16.4999 6 16.4999 6 16.4999 6C16.4999 6 16.4999 6 16.4999 6C16.4999 6 16.4999 6 16.4999 6C16.4999 6 16.4999 6 16.4999 6C16.4999 6 16.4999 6 16.4999 6C16.4999 6 16.4999 6 16.4999 6C16.4999 6 16.4999 6 16.4999 6C16.4999 6 16.4999 6 16.4999 6C16.4999 6 16.4999 6 16.4999 6C16.4999 6 16.4999 6 16.4999 6C16.4999 6 16.4999 6 16.4999 6C16.4999 6 16.4999 6 16.4999 6C16.4999 6 16.4999 6 16.4999 6C16.4999 6 16.4999 6 16.4999 6C16.4999 6 16.4999 6 16.4999 6C16.4999 6 16.4999 6 16.4999 6C16.4999 6 16.4999 6 16.4999 6C16.4999 6 16.4999 6 16.4999 6C16.4999 6 16.4999 6 16.4999 6C16.4999 6 16.4999 6 16.4999 6C16.4999 6 16.4999 6 16.4999 6C16.4999 6 16.4999 6 16.4999 6C16.4999 6 16.4999 6 16.4999 6C16.4999 6 16.4999 6 16.4999 6C16.4999 6 16.4999 6 16.4999 6C16.4999 6 16.4999 6 16.4999 6C16.4999 6 16.4999 6 16.4999 6C16.4999 6 16.4999 6 16.4999 6C16.4999 6 16.4999 6 16.4999 6C16.4999 6 16.4999 6 16.4999 6C16.4999 6 16.4999 6 16.4999 6C16.4999 6 16.4999 6 16.4999 6C16.4999 6 16.4999 6 16.4999 6C16.4999 6 16.4999 6 16.4999 6C16.4999 6 16.4999 6 16.4999 6C16.4999 6 16.4999 6 16.4999 6C16.4999 6 16.4999 6 16.4999 6C16.4999 6 16.4999 6 16.4999 6C16.4999 6 16.4999 6 16.4999 6C16.4999 6 16.4999 6 16.4999 6C16.4999 6 16.4999 6 16.4999 6C16.4999 6 16.4999 6 16.4999 6C16.4999 6 16.4999 6 16.4999 6C16.4999 6 16.4999 6 16.4999 6C16.4999 6 16.4999 6 16.4999 6C16.4999 6 16.4999 6 16.4999 6C16.4999 6 16.4999 6 16.4999 6C16.4999 6 16.4999 6 16.5 6C16.5 6 16.5 6 16.5 6C16.5 6 16.5 6 16.5 6C16.5 6 16.5 6 16.5 6C16.5 6 16.5 6 16.5 6C16.5 6 16.5 6 16.5 6C16.5 6 16.5 6 16.5 6C16.5 6 16.5 6 16.5 6C16.5 6 16.5 6 16.5 6C16.5 6 16.5 6 16.5 6C16.5 6 16.5 6 16.5 6C16.5 6 16.5 6 16.5 6C16.5 6 16.5 6 16.5 6C16.5 6 16.5 6 16.5 6C16.5 6 16.5 6 16.5 6C16.5 6 16.5 6 16.5 6C16.5 6 16.5 6 16.5 6C16.5 6 16.5 6 16.5 6C16.5 6 16.5 6 16.5 6C16.5 6 16.5 6 16.5 6C16.5 6 16.5 6 16.5 6C16.5 6 16.5 6 16.5 6C16.5 6 16.5 6 16.5 6C16.5 6 16.5 6 16.5 6C16.5 6 16.5 6 16.5 6C16.5 6 16.5 6 16.5 6C16.5 6 16.5 6 16.5 6C16.5 6 16.5 6 16.5 6C16.5 6 16.5 6 16.5 6C16.5 6 16.5 6 16.5 6C16.5 6 16.5 6 16.5 6C16.5 6 16.5 6 16.5 6C16.5 6 16.5 6 16.5 6C16.5 6 16.5 6 16.5 6C16.5 6 16.5 6 16.5 6C16.5 6 16.5 6 16.5 6C16.5 6 16.5 6 16.5 6C16.5 6 16.5 6 16.5 6C16.5 6 16.5 6 16.5 6C16.5 6 16.5 6 16.5 6C16.5 6 16.5 6 16.5 6C16.5 6 16.5 6 16.5 6C16.5 6 16.5 6 16.5 6C16.5 6 16.5 6 16.5 6C16.5 6 16.5 6 16.5 6C16.5 6 16.5 6 16.5 6C16.5 6 16.5 6 16.5 6C16.5 6 16.5 6 16.5 6C16.5 6 16.5 6 16.5 6C16.5 6 16.5 6 16.5 6C16.5 6 16.5 6 16.5 6C16.5 6 16.5 6 16.5 6C16.5 6 16.5 6 16.5 6C16.5 6 16.5 6 16.5 6C16.5 6 16.5 6 16.5 6C16.5 6 16.5 6 16.5 6C16.5 6 16.5 6 16.5 6C16.5 6 16.5 6 16.5 6C16.5 6 16.5 6 16.5 6H16.5H16.5H16.5H16.5H16.5H16.5H16.5H16.5H16.5H16.5C16.5 6 16.5 6 16.5 6C16.5 6 16.5 6 16.5 6C16.5 6 16.5 6 16.5 6C16.5 6 16.5 6 16.5 6C16.5 6 16.5 6 16.5 6C16.5 6 16.5 6 16.5 6V4C16.5 4 16.5 4 16.5 4C16.5 4 16.5 4 16.5 4C16.5 4 16.5 4 16.5 4C16.5 4 16.5 4 16.5 4C16.5 4 16.5 4 16.5 4C16.5 4 16.5 4 16.5 4H16.5H16.5H16.5H16.5H16.5H16.5H16.5H16.5H16.5H16.5C16.5 4 16.5 4 16.5 4C16.5 4 16.5 4 16.5 4C16.5 4 16.5 4 16.5 4C16.5 4 16.5 4 16.5 4C16.5 4 16.5 4 16.5 4C16.5 4 16.5 4 16.5 4C16.5 4 16.5 4 16.5 4C16.5 4 16.5 4 16.5 4C16.5 4 16.5 4 16.5 4C16.5 4 16.5 4 16.5 4C16.5 4 16.5 4 16.5 4C16.5 4 16.5 4 16.5 4C16.5 4 16.5 4 16.5 4C16.5 4 16.5 4 16.5 4C16.5 4 16.5 4 16.5 4C16.5 4 16.5 4 16.5 4C16.5 4 16.5 4 16.5 4C16.5 4 16.5 4 16.5 4C16.5 4 16.5 4 16.5 4C16.5 4 16.5 4 16.5 4C16.5 4 16.5 4 16.5 4C16.5 4 16.5 4 16.5 4C16.5 4 16.5 4 16.5 4C16.5 4 16.5 4 16.5 4C16.5 4 16.5 4 16.5 4C16.5 4 16.5 4 16.5 4C16.5 4 16.5 4 16.5 4C16.5 4 16.5 4 16.5 4C16.5 4 16.5 4 16.5 4C16.5 4 16.5 4 16.5 4C16.5 4 16.5 4 16.5 4C16.5 4 16.5 4 16.5 4C16.5 4 16.5 4 16.5 4C16.5 4 16.5 4 16.5 4C16.5 4 16.5 4 16.5 4C16.5 4 16.5 4 16.5 4C16.5 4 16.5 4 16.5 4C16.5 4 16.5 4 16.5 4C16.5 4 16.5 4 16.5 4C16.5 4 16.5 4 16.5 4C16.5 4 16.5 4 16.5 4C16.5 4 16.5 4 16.5 4C16.5 4 16.5 4 16.5 4C16.5 4 16.5 4 16.5 4C16.5 4 16.5 4 16.5 4C16.5 4 16.5 4 16.5 4C16.5 4 16.5 4 16.5 4C16.5 4 16.5 4 16.5 4C16.5 4 16.5 4 16.5 4C16.5 4 16.5 4 16.5 4C16.5 4 16.5 4 16.5 4C16.5 4 16.5 4 16.5 4C16.5 4 16.5 4 16.5 4C16.5 4 16.5 4 16.5 4C16.5 4 16.5 4 16.5 4C16.5 4 16.5 4 16.5 4C16.5 4 16.5 4 16.5 4C16.5 4 16.5 4 16.5 4C16.4999 4 16.4999 4 16.4999 4C16.4999 4 16.4999 4 16.4999 4C16.4999 4 16.4999 4 16.4999 4C16.4999 4 16.4999 4 16.4999 4C16.4999 4 16.4999 4 16.4999 4C16.4999 4 16.4999 4 16.4999 4C16.4999 4 16.4999 4 16.4999 4C16.4999 4 16.4999 4 16.4999 4C16.4999 4 16.4999 4 16.4999 4C16.4999 4 16.4999 4 16.4999 4C16.4999 4 16.4999 4 16.4999 4C16.4999 4 16.4999 4 16.4999 4C16.4999 4 16.4999 4 16.4999 4C16.4999 4 16.4999 4 16.4999 4C16.4999 4 16.4999 4 16.4999 4C16.4999 4 16.4999 4 16.4999 4C16.4999 4 16.4999 4 16.4999 4C16.4999 4 16.4999 4 16.4999 4C16.4999 4 16.4999 4 16.4999 4C16.4999 4 16.4999 4 16.4999 4C16.4999 4 16.4999 4 16.4999 4C16.4999 4 16.4999 4 16.4999 4C16.4999 4 16.4999 4 16.4999 4C16.4999 4 16.4999 4 16.4999 4C16.4999 4 16.4999 4 16.4999 4C16.4999 4 16.4999 4 16.4999 4C16.4999 4 16.4999 4 16.4999 4C16.4999 4 16.4999 4 16.4999 4C16.4999 4 16.4999 4 16.4999 4C16.4999 4 16.4999 4 16.4999 4C16.4999 4 16.4999 4 16.4999 4C16.4999 4 16.4999 4 16.4999 4C16.4999 4 16.4999 4 16.4999 4C16.4999 4 16.4999 4 16.4999 4C16.4999 4 16.4999 4 16.4999 4C16.4999 4 16.4999 4 16.4999 4C16.4999 4 16.4999 4 16.4999 4C16.4999 4 16.4999 4 16.4999 4C16.4999 4 16.4999 4 16.4999 4C16.4999 4 16.4999 4 16.4999 4C16.4999 4 16.4999 4 16.4999 4C16.4999 4 16.4999 4 16.4999 4C16.4999 4 16.4999 4 16.4999 4C16.4999 4 16.4999 4 16.4999 4C16.4999 4 16.4999 4 16.4999 4C16.4999 4 16.4999 4 16.4999 4C16.4999 4 16.4999 4 16.4999 4C16.4999 4 16.4999 4 16.4999 4C16.4999 4 16.4999 4 16.4999 4C16.4999 4 16.4999 4 16.4999 4C16.4999 4 16.4999 4 16.4999 4C16.4999 4 16.4999 4 16.4999 4C16.4999 4 16.4999 4 16.4999 4C16.4999 4 16.4999 4 16.4999 4C16.4999 4 16.4999 4 16.4999 4C16.4999 4 16.4999 4 16.4999 4C16.4999 4 16.4999 4 16.4999 4C16.4999 4 16.4999 4 16.4999 4C16.4999 4 16.4999 4 16.4999 4C16.4999 4 16.4999 4 16.4999 4C16.4999 4 16.4999 4 16.4999 4C16.4999 4 16.4999 4 16.4999 4C16.4999 4 16.4999 4 16.4999 4C16.4999 4 16.4999 4 16.4999 4C16.4999 4 16.4999 4 16.4999 4C16.4999 4 16.4999 4 16.4999 4C16.4999 4 16.4999 4 16.4999 4C16.4999 4 16.4999 4 16.4999 4C16.4999 4 16.4999 4 16.4999 4C16.4999 4 16.4999 4 16.4999 4C16.4999 4 16.4999 4 16.4999 4C16.4999 4 16.4999 4 16.4999 4C16.4999 4 16.4999 4 16.4999 4C16.4999 4 16.4999 4 16.4999 4C16.4999 4 16.4999 4 16.4999 4H16.4999H16.4999H16.4999H16.4999H16.4999H16.4999H16.4999H16.4999H16.4999H16.4999H16.4999C16.4999 4 16.4999 4 16.4999 4C16.4999 4 16.4999 4 16.4999 4C16.4999 4 16.4999 4 16.4999 4C16.4999 4 16.4999 4 16.4999 4C16.4999 4 16.4999 4 16.4999 4C16.4999 4 16.4999 4 16.4999 4C16.4999 4 16.4999 4 16.4999 4C16.4999 4 16.4999 4 16.4999 4C16.4999 4 16.4999 4 16.4999 4C16.4999 4 16.4999 4 16.4999 4V6Z" fill="#999999" mask="url(#path-3-inside-1)"/>
</svg>
