<svg width="70" height="44" viewBox="0 0 70 44" fill="none" xmlns="http://www.w3.org/2000/svg">
<rect opacity="0.4" x="8.47034" y="8.47034" width="61.0297" height="35.4212" rx="4" fill="#A8DCD9"/>
<path d="M62.91 2H4.39332C3.07153 2 2 3.07153 2 4.39332V35.0278C2 36.3496 3.07153 37.4212 4.39332 37.4212H60.5167C61.8385 37.4212 62.91 36.3496 62.91 35.0278V19.8302C62.91 18.5084 61.8385 17.4369 60.5167 17.4369H49.6611C49.1505 17.4369 48.6568 17.6001 48.2495 17.8975C48.0508 18.0427 47.8987 18.2401 47.7596 18.4431L41.639 27.3717C41.4998 27.5747 41.3478 27.7722 41.1492 27.9176C40.3824 28.479 39.3571 28.5268 38.5462 28.061C38.1825 27.8521 37.9481 27.4865 37.7576 27.1128L35.2127 22.1209C35.0222 21.7472 34.7878 21.3817 34.4241 21.1728C33.6887 20.7503 32.7769 20.7503 32.0416 21.1728C31.6779 21.3817 31.4435 21.7472 31.253 22.1209L28.7081 27.1128C28.5176 27.4865 28.2832 27.8521 27.9195 28.061C27.1003 28.5316 26.0623 28.478 25.293 27.9002C25.1117 27.764 24.9701 27.5838 24.8391 27.3986L17.7959 17.4369" stroke="#FAA916" stroke-width="4" stroke-linecap="round" stroke-linejoin="round"/>
</svg>
