<svg width="20" height="20" viewBox="0 0 20 20" fill="none" xmlns="http://www.w3.org/2000/svg">
<path d="M14.7181 0H5.28194C2.32 0 0 2.32 0 5.28194V14.7181C0 17.68 2.32 20 5.28194 20H14.7181C17.68 20 20 17.68 20 14.7181V5.28194C20 2.32 17.6794 0 14.7181 0ZM18.7097 14.7181C18.7097 16.9568 16.9561 18.7097 14.7181 18.7097H5.28194C3.04387 18.7097 1.29032 16.9561 1.29032 14.7181V5.28194C1.29032 3.04387 3.04387 1.29032 5.28194 1.29032H14.7181C16.9568 1.29032 18.7097 3.04387 18.7097 5.28194V14.7181Z" fill="#F6F6F6"/>
<path d="M16.2897 5.10648C16.0826 4.95487 15.8051 4.94197 15.5838 5.071C15.3632 5.20068 14.8742 5.26455 14.4819 5.31616C14.4006 5.32713 14.3206 5.33745 14.2432 5.34842C13.6942 4.89293 12.9929 4.63745 12.2697 4.63745C10.6406 4.63745 9.30385 5.8981 9.20901 7.4839C7.73159 7.23487 6.37869 6.46455 5.41998 5.30713C5.2774 5.13423 5.05611 5.04971 4.83288 5.07874C4.61094 5.10971 4.42127 5.25358 4.33159 5.45874C4.2903 5.55294 3.9303 6.43874 3.9303 8.62971C3.9303 10.5271 5.42772 11.9213 6.45482 12.6549C5.75223 12.9742 4.94256 13.0916 4.17352 13.0065C3.87288 12.9742 3.59159 13.151 3.49223 13.4342C3.39288 13.7181 3.50256 14.0329 3.75675 14.1936C4.96965 14.9587 6.37159 15.3633 7.81159 15.3633C12.4361 15.3633 15.2348 11.7304 15.3387 8.14842C15.4716 7.95552 15.7251 7.58003 16.1535 6.92132C16.3251 6.65616 16.469 6.08455 16.5393 5.76777C16.5955 5.51745 16.4968 5.25745 16.2897 5.10648ZM14.1748 7.56197C14.0955 7.67164 14.0522 7.80455 14.0522 7.94003C14.0522 10.4865 12.1161 14.0729 7.81223 14.0729C7.4232 14.0729 7.0374 14.0375 6.65933 13.9678C7.16385 13.7768 7.64062 13.5104 8.07869 13.1729C8.25417 13.0381 8.34772 12.8213 8.32707 12.6013C8.30643 12.3813 8.17417 12.1865 7.97611 12.0865C7.94836 12.0723 5.22127 10.6381 5.22127 8.63035C5.22127 7.95745 5.2574 7.42842 5.30514 7.02584C6.57159 8.11616 8.1832 8.76842 9.87933 8.85229C9.89223 8.85293 9.90578 8.85358 9.91804 8.85294C10.2935 8.84197 10.5697 8.56648 10.5697 8.20777C10.5697 8.11874 10.5516 8.03423 10.5187 7.95681C10.5026 7.86003 10.4942 7.76261 10.4942 7.66519C10.4942 6.70713 11.2903 5.92777 12.2697 5.92777C12.7613 5.92777 13.2342 6.12906 13.5677 6.47939C13.72 6.6381 13.9426 6.70971 14.1574 6.66777C14.3038 6.64003 14.4729 6.6181 14.6503 6.59487C14.7135 6.58648 14.7774 6.5781 14.8426 6.56906C14.358 7.30713 14.1832 7.55035 14.1748 7.56197Z" fill="#F6F6F6"/>
</svg>
